# File created by Blade
# Date/Time:  Thu Jan 22 16:10:14 2015
# Frame Rate: 120.000 fps
#------------------------------------------------------
:FULLY-SPECIFIED
:DEGREES
1581
root 0.528525 34.893687 4.251178 -2.793514 3.592834 2.177843
RightUpLeg 11.823530 -17.617878 -25.111708
RightLeg -7.004815 -0.000000 0.000000
RightFoot -4.555388 -24.767457 32.506342
RightToeBase 13.390348 -0.000000 -0.000000
LeftUpLeg 3.661876 9.142096 20.074793
LeftLeg 4.851846 -0.000000 -0.000000
LeftFoot -4.835933 11.011488 -33.330937
LeftToeBase 9.955485 -0.000000 -0.000000
Spine 12.883932 -4.717755 -6.697855
RightShoulder -6.456693 -11.124897 -27.287566
RightArm 9.586109 32.915455 38.763831
RightForeArm 9.633576 -0.000000 22.500199
RightHand 5.475353 -0.000000 -16.013051
RightHandThumb1 -24.326973 -0.000000 -32.862282
LeftShoulder -27.095276 33.298524 17.988735
LeftArm 43.602862 -48.643063 -53.424670
LeftForeArm 29.708264 -0.000000 6.912235
LeftHand -21.453561 -0.000000 1.212185
LeftHandThumb1 -26.253704 0.000000 33.147579
Head -3.926659 10.088337 5.649006
1582
root 0.536974 34.893017 4.236727 -2.786117 3.669146 2.221071
RightUpLeg 11.844044 -17.677262 -25.179602
RightLeg -7.013102 -0.000000 0.000000
RightFoot -4.555435 -24.767953 32.532976
RightToeBase 13.405596 -0.000000 -0.000000
LeftUpLeg 3.432240 9.157455 20.012271
LeftLeg 5.201090 -0.000000 -0.000000
LeftFoot -4.901724 10.874177 -33.322312
LeftToeBase 9.911048 -0.000000 -0.000000
Spine 12.889495 -4.777120 -6.776087
RightShoulder -6.437361 -11.107238 -27.293930
RightArm 9.558084 32.959398 38.786179
RightForeArm 9.529267 -0.000000 22.589983
RightHand 5.430844 0.000000 -16.029264
RightHandThumb1 -24.326973 -0.000000 -32.862282
LeftShoulder -27.111656 33.298920 17.948106
LeftArm 43.649247 -48.611433 -53.478344
LeftForeArm 29.733749 0.000000 6.939665
LeftHand -21.465820 -0.000000 1.193140
LeftHandThumb1 -26.253704 0.000000 33.147579
Head -3.907452 10.080138 5.624707
1583
root 0.551428 34.891551 4.220529 -2.768417 3.764237 2.288701
RightUpLeg 11.861823 -17.756964 -25.284490
RightLeg -7.018114 -0.000000 0.000000
RightFoot -4.558541 -24.764016 32.598344
RightToeBase 13.597822 -0.000000 -0.000000
LeftUpLeg 3.167872 9.185764 19.914698
LeftLeg 5.584817 -0.000000 -0.000000
LeftFoot -4.979210 10.703956 -33.296147
LeftToeBase 9.886510 -0.000000 -0.000000
Spine 12.886962 -4.846113 -6.863910
RightShoulder -6.428373 -11.081410 -27.321980
RightArm 9.521598 32.981098 38.812648
RightForeArm 9.442818 -0.000000 22.675849
RightHand 5.332723 -0.000000 -16.032151
RightHandThumb1 -24.326973 -0.000000 -32.862282
LeftShoulder -27.096721 33.305286 17.909082
LeftArm 43.680273 -48.588235 -53.536676
LeftForeArm 29.778720 -0.000000 6.974331
LeftHand -21.423147 0.000000 1.073094
LeftHandThumb1 -26.253704 0.000000 33.147579
Head -3.894461 10.075821 5.593883
1584
root 0.562046 34.889987 4.205595 -2.762441 3.876785 2.345606
RightUpLeg 11.906365 -17.848813 -25.378182
RightLeg -7.038064 -0.000000 0.000000
RightFoot -4.536292 -24.792792 32.604919
RightToeBase 13.427634 -0.000000 -0.000000
LeftUpLeg 2.901922 9.267216 19.842143
LeftLeg 5.977540 -0.000000 -0.000000
LeftFoot -4.983233 10.476305 -33.219574
LeftToeBase 9.784733 -0.000000 -0.000000
Spine 12.900581 -4.911012 -6.958845
RightShoulder -6.430087 -11.107575 -27.312844
RightArm 9.522402 33.041594 38.845079
RightForeArm 9.404314 -0.000000 22.718637
RightHand 5.387000 -0.000000 -16.009144
RightHandThumb1 -24.326973 -0.000000 -32.862282
LeftShoulder -27.034091 33.248678 17.932943
LeftArm 43.644928 -48.550309 -53.546929
LeftForeArm 29.812444 -0.000000 6.987728
LeftHand -21.366945 0.000000 1.038446
LeftHandThumb1 -26.253704 0.000000 33.147579
Head -3.890331 10.045084 5.581875
1585
root 0.579416 34.887515 4.189003 -2.742562 3.977777 2.431738
RightUpLeg 11.922718 -17.910066 -25.503776
RightLeg -7.040950 -0.000000 0.000000
RightFoot -4.546794 -24.817352 32.665170
RightToeBase 13.409398 -0.000000 -0.000000
LeftUpLeg 2.613571 9.415532 19.732753
LeftLeg 6.401907 -0.000000 -0.000000
LeftFoot -5.010895 10.215218 -33.169743
LeftToeBase 9.787054 -0.000000 -0.000000
Spine 12.901477 -4.970819 -7.071862
RightShoulder -6.423151 -11.116610 -27.319422
RightArm 9.493550 32.992166 38.833032
RightForeArm 9.461011 -0.000000 22.742860
RightHand 5.436966 -0.000000 -16.038310
RightHandThumb1 -24.326973 -0.000000 -32.862282
LeftShoulder -26.955718 33.198269 17.971362
LeftArm 43.512988 -48.466550 -53.517631
LeftForeArm 29.754799 -0.000000 7.079159
LeftHand -21.405292 0.000000 0.928554
LeftHandThumb1 -26.253704 0.000000 33.147579
Head -3.906933 10.000628 5.528027
1586
root 0.601171 34.885040 4.170248 -2.694445 4.085133 2.550501
RightUpLeg 11.915466 -17.981791 -25.660814
RightLeg -7.048300 -0.000000 0.000000
RightFoot -4.551640 -24.847928 32.723596
RightToeBase 13.435836 -0.000000 -0.000000
LeftUpLeg 2.287100 9.570299 19.577398
LeftLeg 6.837682 -0.000000 -0.000000
LeftFoot -5.026648 9.958228 -33.121314
LeftToeBase 9.790754 -0.000000 -0.000000
Spine 12.872257 -5.041081 -7.221296
RightShoulder -6.422158 -11.152715 -27.308711
RightArm 9.513806 32.978974 38.837966
RightForeArm 9.521654 -0.000000 22.739614
RightHand 5.537277 -0.000000 -16.103548
RightHandThumb1 -24.326973 -0.000000 -32.862282
LeftShoulder -26.941842 33.221339 17.934511
LeftArm 43.632692 -48.483891 -53.680115
LeftForeArm 29.840818 -0.000000 7.119024
LeftHand -21.434303 -0.000000 0.995975
LeftHandThumb1 -26.253704 0.000000 33.147579
Head -3.905891 9.985088 5.522956
1587
root 0.624967 34.882253 4.152815 -2.674794 4.225153 2.647166
RightUpLeg 11.960065 -18.073476 -25.815019
RightLeg -7.066217 -0.000000 0.000000
RightFoot -4.524460 -24.886574 32.747298
RightToeBase 13.433629 -0.000000 -0.000000
LeftUpLeg 1.960087 9.783403 19.455058
LeftLeg 7.311493 -0.000000 -0.000000
LeftFoot -5.011403 9.586839 -33.023206
LeftToeBase 9.765153 -0.000000 -0.000000
Spine 12.889332 -5.141859 -7.328103
RightShoulder -6.421395 -11.158333 -27.333316
RightArm 9.505466 32.925538 38.832635
RightForeArm 9.546532 -0.000000 22.723892
RightHand 5.453865 0.000000 -16.089609
RightHandThumb1 -24.326973 -0.000000 -32.862282
LeftShoulder -26.969450 33.260712 17.850997
LeftArm 43.829588 -48.492425 -53.887746
LeftForeArm 29.866874 -0.000000 7.137968
LeftHand -21.424228 -0.000000 0.895757
LeftHandThumb1 -26.253704 0.000000 33.147579
Head -3.933812 9.949120 5.446602
1588
root 0.646912 34.878288 4.138130 -2.668935 4.347009 2.752308
RightUpLeg 12.020185 -18.140942 -25.975910
RightLeg -7.099444 -0.000000 0.000000
RightFoot -4.525624 -24.924345 32.793624
RightToeBase 13.443456 -0.000000 -0.000000
LeftUpLeg 1.658930 10.103765 19.347216
LeftLeg 7.786591 -0.000000 -0.000000
LeftFoot -4.934858 9.121773 -32.935455
LeftToeBase 9.730550 -0.000000 -0.000000
Spine 12.916184 -5.203499 -7.463454
RightShoulder -6.425690 -11.157457 -27.334418
RightArm 9.482427 32.880974 38.826953
RightForeArm 9.601215 -0.000000 22.711615
RightHand 5.523548 -0.000000 -16.075402
RightHandThumb1 -24.326973 -0.000000 -32.862282
LeftShoulder -26.941699 33.269669 17.833492
LeftArm 43.827062 -48.388372 -53.903884
LeftForeArm 29.812774 0.000000 7.179156
LeftHand -21.441613 -0.000000 0.921929
LeftHandThumb1 -26.253704 0.000000 33.147579
Head -3.963293 9.857922 5.409242
1589
root 0.672233 34.874365 4.117882 -2.622324 4.491007 2.854113
RightUpLeg 12.037252 -18.216211 -26.124989
RightLeg -7.110043 -0.000000 0.000000
RightFoot -4.541427 -24.979700 32.881565
RightToeBase 13.525649 -0.000000 -0.000000
LeftUpLeg 1.282860 10.435542 19.228368
LeftLeg 8.304548 -0.000000 -0.000000
LeftFoot -4.857707 8.628809 -32.829631
LeftToeBase 9.661976 -0.000000 -0.000000
Spine 12.908232 -5.313577 -7.582188
RightShoulder -6.430927 -11.183809 -27.341171
RightArm 9.513200 32.842197 38.836238
RightForeArm 9.642921 0.000000 22.677824
RightHand 5.486596 -0.000000 -16.068837
RightHandThumb1 -24.326973 -0.000000 -32.862282
LeftShoulder -26.911131 33.257302 17.827025
LeftArm 43.897609 -48.359334 -54.079486
LeftForeArm 29.840567 0.000000 7.244114
LeftHand -21.534776 -0.000000 0.962227
LeftHandThumb1 -26.253704 0.000000 33.147579
Head -3.991295 9.804215 5.373750
1590
root 0.703567 34.870118 4.096546 -2.574402 4.630357 2.984618
RightUpLeg 12.044579 -18.313317 -26.316672
RightLeg -7.108135 -0.000000 0.000000
RightFoot -4.540077 -24.988079 32.940336
RightToeBase 13.516292 -0.000000 -0.000000
LeftUpLeg 0.933510 10.697770 19.060811
LeftLeg 8.781235 -0.000000 -0.000000
LeftFoot -4.832617 8.212637 -32.733016
LeftToeBase 9.660721 -0.000000 -0.000000
Spine 12.906684 -5.425273 -7.715428
RightShoulder -6.426529 -11.265201 -27.361833
RightArm 9.588124 32.905821 38.896244
RightForeArm 9.623825 -0.000000 22.648021
RightHand 5.628935 -0.000000 -16.208055
RightHandThumb1 -24.326973 -0.000000 -32.862282
LeftShoulder -26.911319 33.254577 17.752922
LeftArm 43.921817 -48.282749 -54.110500
LeftForeArm 29.859178 0.000000 7.260772
LeftHand -21.509176 -0.000000 0.876262
LeftHandThumb1 -26.253704 0.000000 33.147579
Head -4.040904 9.794159 5.294509
1591
root 0.734686 34.865015 4.078070 -2.542369 4.754801 3.102035
RightUpLeg 12.071434 -18.404924 -26.498334
RightLeg -7.126468 -0.000000 0.000000
RightFoot -4.513337 -25.052119 32.954198
RightToeBase 13.482636 -0.000000 -0.000000
LeftUpLeg 0.596221 10.984583 18.922635
LeftLeg 9.288622 -0.000000 -0.000000
LeftFoot -4.829782 7.729555 -32.773729
LeftToeBase 9.831214 -0.000000 -0.000000
Spine 12.913066 -5.501165 -7.830353
RightShoulder -6.397950 -11.228342 -27.400061
RightArm 9.498645 32.883823 38.871759
RightForeArm 9.591553 -0.000000 22.656690
RightHand 5.440357 0.000000 -16.083565
RightHandThumb1 -24.326973 -0.000000 -32.862282
LeftShoulder -26.879838 33.245828 17.724350
LeftArm 43.948830 -48.185204 -54.190194
LeftForeArm 29.785640 -0.000000 7.292646
LeftHand -21.541890 0.000000 0.814556
LeftHandThumb1 -26.253704 0.000000 33.147579
Head -4.082287 9.708906 5.192640
1592
root 0.771707 34.858979 4.056927 -2.502730 4.894338 3.253978
RightUpLeg 12.096186 -18.514162 -26.727234
RightLeg -7.140250 -0.000000 0.000000
RightFoot -4.483392 -25.093046 33.001628
RightToeBase 13.470612 -0.000000 -0.000000
LeftUpLeg 0.217685 11.308309 18.738697
LeftLeg 9.852362 -0.000000 -0.000000
LeftFoot -4.738922 7.213567 -32.608217
LeftToeBase 9.641804 -0.000000 -0.000000
Spine 12.929557 -5.579541 -7.979178
RightShoulder -6.377512 -11.228951 -27.421886
RightArm 9.419888 32.905651 38.850325
RightForeArm 9.630350 -0.000000 22.669840
RightHand 5.449113 -0.000000 -16.028491
RightHandThumb1 -24.326973 -0.000000 -32.862282
LeftShoulder -26.796437 33.180863 17.750476
LeftArm 43.898053 -48.094323 -54.257029
LeftForeArm 29.899308 0.000000 7.334639
LeftHand -21.488341 -0.000000 0.815053
LeftHandThumb1 -26.253704 0.000000 33.147579
Head -4.144198 9.610031 5.096395
1593
root 0.810001 34.852959 4.033197 -2.450156 5.038232 3.390210
RightUpLeg 12.096974 -18.631631 -26.936506
RightLeg -7.129680 -0.000000 0.000000
RightFoot -4.474576 -25.120298 33.061986
RightToeBase 13.499978 -0.000000 -0.000000
LeftUpLeg -0.187890 11.600994 18.564926
LeftLeg 10.429000 -0.000000 -0.000000
LeftFoot -4.768152 6.693806 -32.720377
LeftToeBase 9.891001 -0.000000 -0.000000
Spine 12.938412 -5.681662 -8.101763
RightShoulder -6.360372 -11.217653 -27.455586
RightArm 9.363988 32.929149 38.848594
RightForeArm 9.702661 -0.000000 22.677021
RightHand 5.615516 -0.000000 -16.137031
RightHandThumb1 -24.326973 -0.000000 -32.862282
LeftShoulder -26.793361 33.205916 17.697231
LeftArm 43.904553 -47.940962 -54.298203
LeftForeArm 29.815909 -0.000000 7.385612
LeftHand -21.471079 -0.000000 0.735131
LeftHandThumb1 -26.253704 0.000000 33.147579
Head -4.205020 9.575123 5.024552
